<?xml version="1.0" standalone="no"?>
<!DOCTYPE svg PUBLIC "-//W3C//DTD SVG 20010904//EN"
 "http://www.w3.org/TR/2001/REC-SVG-20010904/DTD/svg10.dtd">
<svg version="1.0" xmlns="http://www.w3.org/2000/svg"
 width="700.000000pt" height="700.000000pt" viewBox="0 0 700.000000 700.000000"
 preserveAspectRatio="xMidYMid meet">
<metadata>
Created by potrace 1.14, written by Peter Selinger 2001-2017
</metadata>
<g transform="translate(0.000000,700.000000) scale(0.100000,-0.100000)"
fill="#000000" stroke="none">
<path d="M863 6844 c-265 -38 -503 -180 -664 -396 -82 -110 -153 -265 -175
-380 -2 -13 -7 -34 -11 -48 -11 -38 -14 -4163 -2 -4240 15 -108 72 -272 122
-355 144 -236 348 -397 597 -469 122 -35 190 -38 795 -40 l599 -1 2 -50 c1
-43 6 -75 30 -193 7 -36 55 -151 84 -205 117 -214 325 -381 556 -448 97 -27
441 -27 534 1 291 88 519 312 619 608 27 78 33 112 46 242 2 19 4 37 4 40 1 3
463 6 1029 6 565 1 1052 4 1082 8 459 58 815 408 880 865 6 46 10 785 9 2113
-1 1670 -3 2057 -14 2118 -57 316 -257 585 -540 727 -67 34 -190 77 -250 88
-22 4 -51 10 -65 12 -14 3 -1186 6 -2606 6 -1879 2 -2603 -1 -2661 -9z m2489
-993 c42 -11 100 -32 129 -47 100 -50 210 -145 240 -207 8 -15 37 -60 64 -99
28 -40 139 -201 247 -358 109 -157 203 -293 210 -302 6 -9 87 -126 180 -260
92 -134 172 -250 178 -258 29 -41 283 -407 293 -422 7 -10 14 -18 17 -18 3 0
5 116 4 258 -1 271 5 316 49 411 155 335 599 414 857 152 89 -90 137 -186 154
-306 3 -22 8 -454 12 -960 5 -840 4 -926 -11 -995 -53 -233 -246 -423 -481
-474 -110 -23 -279 -15 -378 19 -165 57 -249 133 -411 373 -123 182 -316 463
-367 534 -18 26 -62 90 -98 143 -36 52 -135 197 -220 320 -85 124 -211 306
-279 405 -68 100 -125 179 -127 177 -2 -2 -4 -694 -4 -1538 0 -1303 -3 -1542
-15 -1589 -60 -227 -253 -391 -479 -406 -267 -18 -506 161 -561 419 -20 94
-18 4452 2 4550 26 126 91 240 192 334 52 49 188 128 239 138 52 11 65 15 68
18 2 2 52 4 111 6 81 1 127 -3 185 -18z m-1661 -1035 c198 -59 342 -226 377
-436 4 -25 7 -470 6 -990 -1 -853 -3 -951 -18 -1010 -85 -325 -457 -492 -757
-340 -135 69 -236 195 -275 345 -11 40 -14 245 -14 1020 0 843 2 977 15 1025
9 30 17 60 18 65 23 88 155 234 257 284 119 57 272 72 391 37z"/>
</g>
</svg>
